# https://github.com/mikedh/trimesh
v -1.00000000 -1.00000000 -0.90000000 0.70588235 0.54901961 0.39215686
v -1.00000000 -1.00000000 0.90000000 0.70588235 0.54901961 0.39215686
v -1.00000000 1.00000000 -0.90000000 0.70588235 0.54901961 0.39215686
v -1.00000000 1.00000000 0.90000000 0.70588235 0.54901961 0.39215686
v 1.00000000 -1.00000000 -0.90000000 0.70588235 0.54901961 0.39215686
v 1.00000000 -1.00000000 0.90000000 0.70588235 0.54901961 0.39215686
v 1.00000000 1.00000000 -0.90000000 0.70588235 0.54901961 0.39215686
v 1.00000000 1.00000000 0.90000000 0.70588235 0.54901961 0.39215686
v 0.00000000 0.00000000 1.35000000 0.70588235 0.54901961 0.39215686
v 1.50000000 0.00000000 1.35000000 0.70588235 0.54901961 0.39215686
v 0.00000000 0.00000000 2.25000000 0.70588235 0.54901961 0.39215686
v 0.00000000 1.50000000 1.35000000 0.70588235 0.54901961 0.39215686
v -1.50000000 0.00000000 1.35000000 0.70588235 0.54901961 0.39215686
v -0.00000000 -1.50000000 1.35000000 0.70588235 0.54901961 0.39215686
v 0.70000000 0.70000000 -1.00000000 0.70588235 0.54901961 0.39215686
v 0.98000000 0.70000000 -1.00000000 0.70588235 0.54901961 0.39215686
v 0.98000000 0.70000000 1.80000000 0.70588235 0.54901961 0.39215686
v 0.70000000 0.70000000 1.80000000 0.70588235 0.54901961 0.39215686
v 0.89798990 0.89798990 -1.00000000 0.70588235 0.54901961 0.39215686
v 0.89798990 0.89798990 1.80000000 0.70588235 0.54901961 0.39215686
v 0.70000000 0.98000000 -1.00000000 0.70588235 0.54901961 0.39215686
v 0.70000000 0.98000000 1.80000000 0.70588235 0.54901961 0.39215686
v 0.50201010 0.89798990 -1.00000000 0.70588235 0.54901961 0.39215686
v 0.50201010 0.89798990 1.80000000 0.70588235 0.54901961 0.39215686
v 0.42000000 0.70000000 -1.00000000 0.70588235 0.54901961 0.39215686
v 0.42000000 0.70000000 1.80000000 0.70588235 0.54901961 0.39215686
v 0.50201010 0.50201010 -1.00000000 0.70588235 0.54901961 0.39215686
v 0.50201010 0.50201010 1.80000000 0.70588235 0.54901961 0.39215686
v 0.70000000 0.42000000 -1.00000000 0.70588235 0.54901961 0.39215686
v 0.70000000 0.42000000 1.80000000 0.70588235 0.54901961 0.39215686
v 0.89798990 0.50201010 -1.00000000 0.70588235 0.54901961 0.39215686
v 0.89798990 0.50201010 1.80000000 0.70588235 0.54901961 0.39215686
v 0.70000000 0.70000000 1.65000000 0.70588235 0.54901961 0.39215686
v 1.05000000 0.70000000 1.65000000 0.70588235 0.54901961 0.39215686
v 0.70000000 0.70000000 2.15000000 0.70588235 0.54901961 0.39215686
v 0.94748737 0.94748737 1.65000000 0.70588235 0.54901961 0.39215686
v 0.70000000 1.05000000 1.65000000 0.70588235 0.54901961 0.39215686
v 0.45251263 0.94748737 1.65000000 0.70588235 0.54901961 0.39215686
v 0.35000000 0.70000000 1.65000000 0.70588235 0.54901961 0.39215686
v 0.45251263 0.45251263 1.65000000 0.70588235 0.54901961 0.39215686
v 0.70000000 0.35000000 1.65000000 0.70588235 0.54901961 0.39215686
v 0.94748737 0.45251263 1.65000000 0.70588235 0.54901961 0.39215686
f 2 4 1
f 5 2 1
f 1 4 3
f 3 5 1
f 2 8 4
f 6 2 5
f 6 8 2
f 4 8 3
f 7 5 3
f 3 8 7
f 7 6 5
f 8 6 7
f 10 9 12
f 10 12 11
f 12 9 13
f 12 13 11
f 13 9 14
f 13 14 11
f 14 9 10
f 14 10 11
f 16 15 19
f 16 19 17
f 17 19 20
f 17 20 18
f 19 15 21
f 19 21 20
f 20 21 22
f 20 22 18
f 21 15 23
f 21 23 22
f 22 23 24
f 22 24 18
f 23 15 25
f 23 25 24
f 24 25 26
f 24 26 18
f 25 15 27
f 25 27 26
f 26 27 28
f 26 28 18
f 27 15 29
f 27 29 28
f 28 29 30
f 28 30 18
f 29 15 31
f 29 31 30
f 30 31 32
f 30 32 18
f 31 15 16
f 31 16 32
f 32 16 17
f 32 17 18
f 34 33 36
f 34 36 35
f 36 33 37
f 36 37 35
f 37 33 38
f 37 38 35
f 38 33 39
f 38 39 35
f 39 33 40
f 39 40 35
f 40 33 41
f 40 41 35
f 41 33 42
f 41 42 35
f 42 33 34
f 42 34 35

