# https://github.com/mikedh/trimesh
v 0.00000000 0.00000000 0.00000000
v 0.06000000 0.00000000 0.25000000
v -0.06000000 0.00000000 0.25000000
v 0.02000000 0.00000000 2.00000000
v -0.02000000 0.00000000 2.00000000
v 0.00000000 0.01000000 1.00000000
v -0.35000000 -0.02000000 0.17000000
v -0.35000000 -0.02000000 0.27000000
v -0.35000000 0.02000000 0.17000000
v -0.35000000 0.02000000 0.27000000
v 0.35000000 -0.02000000 0.17000000
v 0.35000000 -0.02000000 0.27000000
v 0.35000000 0.02000000 0.17000000
v 0.35000000 0.02000000 0.27000000
v 0.00000000 0.00000000 -0.40000000
v 0.06000000 0.00000000 -0.40000000
v 0.06000000 0.00000000 0.00000000
v 0.00000000 0.00000000 0.00000000
v 0.04242641 0.04242641 -0.40000000
v 0.04242641 0.04242641 0.00000000
v 0.00000000 0.06000000 -0.40000000
v 0.00000000 0.06000000 0.00000000
v -0.04242641 0.04242641 -0.40000000
v -0.04242641 0.04242641 0.00000000
v -0.06000000 0.00000000 -0.40000000
v -0.06000000 0.00000000 0.00000000
v -0.04242641 -0.04242641 -0.40000000
v -0.04242641 -0.04242641 0.00000000
v -0.00000000 -0.06000000 -0.40000000
v -0.00000000 -0.06000000 0.00000000
v 0.04242641 -0.04242641 -0.40000000
v 0.04242641 -0.04242641 0.00000000
f 1 2 3
f 2 4 3
f 4 5 3
f 1 6 2
f 6 4 2
f 1 3 6
f 6 3 5
f 6 5 4
f 8 10 7
f 11 8 7
f 7 10 9
f 9 11 7
f 8 14 10
f 12 8 11
f 12 14 8
f 10 14 9
f 13 11 9
f 9 14 13
f 13 12 11
f 14 12 13
f 16 15 19
f 16 19 17
f 17 19 20
f 17 20 18
f 19 15 21
f 19 21 20
f 20 21 22
f 20 22 18
f 21 15 23
f 21 23 22
f 22 23 24
f 22 24 18
f 23 15 25
f 23 25 24
f 24 25 26
f 24 26 18
f 25 15 27
f 25 27 26
f 26 27 28
f 26 28 18
f 27 15 29
f 27 29 28
f 28 29 30
f 28 30 18
f 29 15 31
f 29 31 30
f 30 31 32
f 30 32 18
f 31 15 16
f 31 16 32
f 32 16 17
f 32 17 18

