# https://github.com/mikedh/trimesh
v 0.00000000 0.00000000 -0.09000000 0.60784314 0.23529412 0.86274510
v 0.55000000 0.00000000 -0.09000000 0.60784314 0.23529412 0.86274510
v 0.55000000 0.00000000 0.09000000 0.60784314 0.23529412 0.86274510
v 0.00000000 0.00000000 0.09000000 0.60784314 0.23529412 0.86274510
v 0.53125920 0.14235047 -0.09000000 0.60784314 0.23529412 0.86274510
v 0.53125920 0.14235047 0.09000000 0.60784314 0.23529412 0.86274510
v 0.47631397 0.27500000 -0.09000000 0.60784314 0.23529412 0.86274510
v 0.47631397 0.27500000 0.09000000 0.60784314 0.23529412 0.86274510
v 0.38890873 0.38890873 -0.09000000 0.60784314 0.23529412 0.86274510
v 0.38890873 0.38890873 0.09000000 0.60784314 0.23529412 0.86274510
v 0.27500000 0.47631397 -0.09000000 0.60784314 0.23529412 0.86274510
v 0.27500000 0.47631397 0.09000000 0.60784314 0.23529412 0.86274510
v 0.14235047 0.53125920 -0.09000000 0.60784314 0.23529412 0.86274510
v 0.14235047 0.53125920 0.09000000 0.60784314 0.23529412 0.86274510
v 0.00000000 0.55000000 -0.09000000 0.60784314 0.23529412 0.86274510
v 0.00000000 0.55000000 0.09000000 0.60784314 0.23529412 0.86274510
v -0.14235047 0.53125920 -0.09000000 0.60784314 0.23529412 0.86274510
v -0.14235047 0.53125920 0.09000000 0.60784314 0.23529412 0.86274510
v -0.27500000 0.47631397 -0.09000000 0.60784314 0.23529412 0.86274510
v -0.27500000 0.47631397 0.09000000 0.60784314 0.23529412 0.86274510
v -0.38890873 0.38890873 -0.09000000 0.60784314 0.23529412 0.86274510
v -0.38890873 0.38890873 0.09000000 0.60784314 0.23529412 0.86274510
v -0.47631397 0.27500000 -0.09000000 0.60784314 0.23529412 0.86274510
v -0.47631397 0.27500000 0.09000000 0.60784314 0.23529412 0.86274510
v -0.53125920 0.14235047 -0.09000000 0.60784314 0.23529412 0.86274510
v -0.53125920 0.14235047 0.09000000 0.60784314 0.23529412 0.86274510
v -0.55000000 0.00000000 -0.09000000 0.60784314 0.23529412 0.86274510
v -0.55000000 0.00000000 0.09000000 0.60784314 0.23529412 0.86274510
v -0.53125920 -0.14235047 -0.09000000 0.60784314 0.23529412 0.86274510
v -0.53125920 -0.14235047 0.09000000 0.60784314 0.23529412 0.86274510
v -0.47631397 -0.27500000 -0.09000000 0.60784314 0.23529412 0.86274510
v -0.47631397 -0.27500000 0.09000000 0.60784314 0.23529412 0.86274510
v -0.38890873 -0.38890873 -0.09000000 0.60784314 0.23529412 0.86274510
v -0.38890873 -0.38890873 0.09000000 0.60784314 0.23529412 0.86274510
v -0.27500000 -0.47631397 -0.09000000 0.60784314 0.23529412 0.86274510
v -0.27500000 -0.47631397 0.09000000 0.60784314 0.23529412 0.86274510
v -0.14235047 -0.53125920 -0.09000000 0.60784314 0.23529412 0.86274510
v -0.14235047 -0.53125920 0.09000000 0.60784314 0.23529412 0.86274510
v -0.00000000 -0.55000000 -0.09000000 0.60784314 0.23529412 0.86274510
v -0.00000000 -0.55000000 0.09000000 0.60784314 0.23529412 0.86274510
v 0.14235047 -0.53125920 -0.09000000 0.60784314 0.23529412 0.86274510
v 0.14235047 -0.53125920 0.09000000 0.60784314 0.23529412 0.86274510
v 0.27500000 -0.47631397 -0.09000000 0.60784314 0.23529412 0.86274510
v 0.27500000 -0.47631397 0.09000000 0.60784314 0.23529412 0.86274510
v 0.38890873 -0.38890873 -0.09000000 0.60784314 0.23529412 0.86274510
v 0.38890873 -0.38890873 0.09000000 0.60784314 0.23529412 0.86274510
v 0.47631397 -0.27500000 -0.09000000 0.60784314 0.23529412 0.86274510
v 0.47631397 -0.27500000 0.09000000 0.60784314 0.23529412 0.86274510
v 0.53125920 -0.14235047 -0.09000000 0.60784314 0.23529412 0.86274510
v 0.53125920 -0.14235047 0.09000000 0.60784314 0.23529412 0.86274510
v 0.40000000 0.00000000 0.24000000 0.60784314 0.23529412 0.86274510
v 0.46000000 0.00000000 0.24000000 0.60784314 0.23529412 0.86274510
v 0.40000000 0.00000000 0.59000000 0.60784314 0.23529412 0.86274510
v 0.43000000 0.05196152 0.24000000 0.60784314 0.23529412 0.86274510
v 0.37000000 0.05196152 0.24000000 0.60784314 0.23529412 0.86274510
v 0.34000000 0.00000000 0.24000000 0.60784314 0.23529412 0.86274510
v 0.37000000 -0.05196152 0.24000000 0.60784314 0.23529412 0.86274510
v 0.43000000 -0.05196152 0.24000000 0.60784314 0.23529412 0.86274510
v 0.28000000 0.28000000 0.24000000 0.60784314 0.23529412 0.86274510
v 0.34000000 0.28000000 0.24000000 0.60784314 0.23529412 0.86274510
v 0.28000000 0.28000000 0.59000000 0.60784314 0.23529412 0.86274510
v 0.31000000 0.33196152 0.24000000 0.60784314 0.23529412 0.86274510
v 0.25000000 0.33196152 0.24000000 0.60784314 0.23529412 0.86274510
v 0.22000000 0.28000000 0.24000000 0.60784314 0.23529412 0.86274510
v 0.25000000 0.22803848 0.24000000 0.60784314 0.23529412 0.86274510
v 0.31000000 0.22803848 0.24000000 0.60784314 0.23529412 0.86274510
v 0.00000000 0.40000000 0.24000000 0.60784314 0.23529412 0.86274510
v 0.06000000 0.40000000 0.24000000 0.60784314 0.23529412 0.86274510
v 0.00000000 0.40000000 0.59000000 0.60784314 0.23529412 0.86274510
v 0.03000000 0.45196152 0.24000000 0.60784314 0.23529412 0.86274510
v -0.03000000 0.45196152 0.24000000 0.60784314 0.23529412 0.86274510
v -0.06000000 0.40000000 0.24000000 0.60784314 0.23529412 0.86274510
v -0.03000000 0.34803848 0.24000000 0.60784314 0.23529412 0.86274510
v 0.03000000 0.34803848 0.24000000 0.60784314 0.23529412 0.86274510
v -0.28000000 0.28000000 0.24000000 0.60784314 0.23529412 0.86274510
v -0.22000000 0.28000000 0.24000000 0.60784314 0.23529412 0.86274510
v -0.28000000 0.28000000 0.59000000 0.60784314 0.23529412 0.86274510
v -0.25000000 0.33196152 0.24000000 0.60784314 0.23529412 0.86274510
v -0.31000000 0.33196152 0.24000000 0.60784314 0.23529412 0.86274510
v -0.34000000 0.28000000 0.24000000 0.60784314 0.23529412 0.86274510
v -0.31000000 0.22803848 0.24000000 0.60784314 0.23529412 0.86274510
v -0.25000000 0.22803848 0.24000000 0.60784314 0.23529412 0.86274510
v -0.40000000 0.00000000 0.24000000 0.60784314 0.23529412 0.86274510
v -0.34000000 0.00000000 0.24000000 0.60784314 0.23529412 0.86274510
v -0.40000000 0.00000000 0.59000000 0.60784314 0.23529412 0.86274510
v -0.37000000 0.05196152 0.24000000 0.60784314 0.23529412 0.86274510
v -0.43000000 0.05196152 0.24000000 0.60784314 0.23529412 0.86274510
v -0.46000000 0.00000000 0.24000000 0.60784314 0.23529412 0.86274510
v -0.43000000 -0.05196152 0.24000000 0.60784314 0.23529412 0.86274510
v -0.37000000 -0.05196152 0.24000000 0.60784314 0.23529412 0.86274510
v -0.28000000 -0.28000000 0.24000000 0.60784314 0.23529412 0.86274510
v -0.22000000 -0.28000000 0.24000000 0.60784314 0.23529412 0.86274510
v -0.28000000 -0.28000000 0.59000000 0.60784314 0.23529412 0.86274510
v -0.25000000 -0.22803848 0.24000000 0.60784314 0.23529412 0.86274510
v -0.31000000 -0.22803848 0.24000000 0.60784314 0.23529412 0.86274510
v -0.34000000 -0.28000000 0.24000000 0.60784314 0.23529412 0.86274510
v -0.31000000 -0.33196152 0.24000000 0.60784314 0.23529412 0.86274510
v -0.25000000 -0.33196152 0.24000000 0.60784314 0.23529412 0.86274510
v 0.00000000 -0.40000000 0.24000000 0.60784314 0.23529412 0.86274510
v 0.06000000 -0.40000000 0.24000000 0.60784314 0.23529412 0.86274510
v 0.00000000 -0.40000000 0.59000000 0.60784314 0.23529412 0.86274510
v 0.03000000 -0.34803848 0.24000000 0.60784314 0.23529412 0.86274510
v -0.03000000 -0.34803848 0.24000000 0.60784314 0.23529412 0.86274510
v -0.06000000 -0.40000000 0.24000000 0.60784314 0.23529412 0.86274510
v -0.03000000 -0.45196152 0.24000000 0.60784314 0.23529412 0.86274510
v 0.03000000 -0.45196152 0.24000000 0.60784314 0.23529412 0.86274510
v 0.28000000 -0.28000000 0.24000000 0.60784314 0.23529412 0.86274510
v 0.34000000 -0.28000000 0.24000000 0.60784314 0.23529412 0.86274510
v 0.28000000 -0.28000000 0.59000000 0.60784314 0.23529412 0.86274510
v 0.31000000 -0.22803848 0.24000000 0.60784314 0.23529412 0.86274510
v 0.25000000 -0.22803848 0.24000000 0.60784314 0.23529412 0.86274510
v 0.22000000 -0.28000000 0.24000000 0.60784314 0.23529412 0.86274510
v 0.25000000 -0.33196152 0.24000000 0.60784314 0.23529412 0.86274510
v 0.31000000 -0.33196152 0.24000000 0.60784314 0.23529412 0.86274510
f 2 1 5
f 2 5 3
f 3 5 6
f 3 6 4
f 5 1 7
f 5 7 6
f 6 7 8
f 6 8 4
f 7 1 9
f 7 9 8
f 8 9 10
f 8 10 4
f 9 1 11
f 9 11 10
f 10 11 12
f 10 12 4
f 11 1 13
f 11 13 12
f 12 13 14
f 12 14 4
f 13 1 15
f 13 15 14
f 14 15 16
f 14 16 4
f 15 1 17
f 15 17 16
f 16 17 18
f 16 18 4
f 17 1 19
f 17 19 18
f 18 19 20
f 18 20 4
f 19 1 21
f 19 21 20
f 20 21 22
f 20 22 4
f 21 1 23
f 21 23 22
f 22 23 24
f 22 24 4
f 23 1 25
f 23 25 24
f 24 25 26
f 24 26 4
f 25 1 27
f 25 27 26
f 26 27 28
f 26 28 4
f 27 1 29
f 27 29 28
f 28 29 30
f 28 30 4
f 29 1 31
f 29 31 30
f 30 31 32
f 30 32 4
f 31 1 33
f 31 33 32
f 32 33 34
f 32 34 4
f 33 1 35
f 33 35 34
f 34 35 36
f 34 36 4
f 35 1 37
f 35 37 36
f 36 37 38
f 36 38 4
f 37 1 39
f 37 39 38
f 38 39 40
f 38 40 4
f 39 1 41
f 39 41 40
f 40 41 42
f 40 42 4
f 41 1 43
f 41 43 42
f 42 43 44
f 42 44 4
f 43 1 45
f 43 45 44
f 44 45 46
f 44 46 4
f 45 1 47
f 45 47 46
f 46 47 48
f 46 48 4
f 47 1 49
f 47 49 48
f 48 49 50
f 48 50 4
f 49 1 2
f 49 2 50
f 50 2 3
f 50 3 4
f 52 51 54
f 52 54 53
f 54 51 55
f 54 55 53
f 55 51 56
f 55 56 53
f 56 51 57
f 56 57 53
f 57 51 58
f 57 58 53
f 58 51 52
f 58 52 53
f 60 59 62
f 60 62 61
f 62 59 63
f 62 63 61
f 63 59 64
f 63 64 61
f 64 59 65
f 64 65 61
f 65 59 66
f 65 66 61
f 66 59 60
f 66 60 61
f 68 67 70
f 68 70 69
f 70 67 71
f 70 71 69
f 71 67 72
f 71 72 69
f 72 67 73
f 72 73 69
f 73 67 74
f 73 74 69
f 74 67 68
f 74 68 69
f 76 75 78
f 76 78 77
f 78 75 79
f 78 79 77
f 79 75 80
f 79 80 77
f 80 75 81
f 80 81 77
f 81 75 82
f 81 82 77
f 82 75 76
f 82 76 77
f 84 83 86
f 84 86 85
f 86 83 87
f 86 87 85
f 87 83 88
f 87 88 85
f 88 83 89
f 88 89 85
f 89 83 90
f 89 90 85
f 90 83 84
f 90 84 85
f 92 91 94
f 92 94 93
f 94 91 95
f 94 95 93
f 95 91 96
f 95 96 93
f 96 91 97
f 96 97 93
f 97 91 98
f 97 98 93
f 98 91 92
f 98 92 93
f 100 99 102
f 100 102 101
f 102 99 103
f 102 103 101
f 103 99 104
f 103 104 101
f 104 99 105
f 104 105 101
f 105 99 106
f 105 106 101
f 106 99 100
f 106 100 101
f 108 107 110
f 108 110 109
f 110 107 111
f 110 111 109
f 111 107 112
f 111 112 109
f 112 107 113
f 112 113 109
f 113 107 114
f 113 114 109
f 114 107 108
f 114 108 109

